<svg width="32" height="32" viewBox="0 0 32 32" fill="none" xmlns="http://www.w3.org/2000/svg">
<path d="M23.2 25.6666H8.8C6.8 25.6666 6 24.8133 6 22.6933V21.3066C6 19.1866 6.8 18.3333 8.8 18.3333H23.2C25.2 18.3333 26 19.1866 26 21.3066V22.6933C26 24.8133 25.2 25.6666 23.2 25.6666Z" stroke="#FEDC5A" stroke-width="2" stroke-linecap="round" stroke-linejoin="round"/>
<path d="M20.5332 14.3333H11.4665C9.4665 14.3333 8.6665 13.48 8.6665 11.36V9.97333C8.6665 7.85333 9.4665 7 11.4665 7H20.5332C22.5332 7 23.3332 7.85333 23.3332 9.97333V11.36C23.3332 13.48 22.5332 14.3333 20.5332 14.3333Z" stroke="#FEDC5A" stroke-width="2" stroke-linecap="round" stroke-linejoin="round"/>
<path d="M16 29.3333V26.1333" stroke="#FEDC5A" stroke-width="2" stroke-linecap="round" stroke-linejoin="round"/>
<path d="M16 17.3334V14.6667" stroke="#FEDC5A" stroke-width="2" stroke-linecap="round" stroke-linejoin="round"/>
<path d="M16 2.66669V6.25335" stroke="#292D32" stroke-width="2" stroke-linecap="round" stroke-linejoin="round"/>
</svg>
