<svg width="32" height="32" viewBox="0 0 32 32" fill="none" xmlns="http://www.w3.org/2000/svg">
<path d="M9.01323 29.3334H22.9866C26.6666 29.3334 28.1332 27.08 28.3066 24.3334L28.9999 13.32C29.1866 10.44 26.8932 8.00002 23.9999 8.00002C23.1866 8.00002 22.4399 7.53335 22.0666 6.81335L21.1066 4.88002C20.4932 3.66669 18.8932 2.66669 17.5332 2.66669H14.4799C13.1066 2.66669 11.5066 3.66669 10.8932 4.88002L9.93323 6.81335C9.5599 7.53335 8.81323 8.00002 7.9999 8.00002C5.10656 8.00002 2.81323 10.44 2.9999 13.32L3.69323 24.3334C3.85323 27.08 5.33323 29.3334 9.01323 29.3334Z" stroke="#5454D4" stroke-width="2" stroke-linecap="round" stroke-linejoin="round"/>
<path d="M14 10.6667H18" stroke="#5454D4" stroke-width="2" stroke-linecap="round" stroke-linejoin="round"/>
<path d="M15.9998 24C18.3865 24 20.3332 22.0533 20.3332 19.6666C20.3332 17.28 18.3865 15.3333 15.9998 15.3333C13.6132 15.3333 11.6665 17.28 11.6665 19.6666C11.6665 22.0533 13.6132 24 15.9998 24Z" stroke="#5454D4" stroke-width="2" stroke-linecap="round" stroke-linejoin="round"/>
</svg>
