<svg width="32" height="32" viewBox="0 0 32 32" fill="none" xmlns="http://www.w3.org/2000/svg">
<path d="M11.9999 17.3333C11.1199 17.7733 10.3865 18.4266 9.83986 19.24C9.5332 19.7066 9.5332 20.2933 9.83986 20.76C10.3865 21.5733 11.1199 22.2266 11.9999 22.6666" stroke="#5454D4" stroke-width="2" stroke-linecap="round" stroke-linejoin="round"/>
<path d="M20.2798 17.3333C21.1598 17.7733 21.8931 18.4266 22.4398 19.24C22.7465 19.7066 22.7465 20.2933 22.4398 20.76C21.8931 21.5733 21.1598 22.2266 20.2798 22.6666" stroke="#5454D4" stroke-width="2" stroke-linecap="round" stroke-linejoin="round"/>
<path d="M11.9998 29.3334H19.9998C26.6665 29.3334 29.3332 26.6667 29.3332 20V12C29.3332 5.33335 26.6665 2.66669 19.9998 2.66669H11.9998C5.33317 2.66669 2.6665 5.33335 2.6665 12V20C2.6665 26.6667 5.33317 29.3334 11.9998 29.3334Z" stroke="#5454D4" stroke-width="2" stroke-linecap="round" stroke-linejoin="round"/>
<path d="M2.97314 10.68L28.5998 10.6667" stroke="#5454D4" stroke-width="2" stroke-linecap="round" stroke-linejoin="round"/>
</svg>
